<?xml version="1.0" standalone="no"?>
<!DOCTYPE svg PUBLIC "-//W3C//DTD SVG 20010904//EN"
 "http://www.w3.org/TR/2001/REC-SVG-20010904/DTD/svg10.dtd">
<svg version="1.0" xmlns="http://www.w3.org/2000/svg"
 width="230.000000pt" height="230.000000pt" viewBox="0 0 230.000000 230.000000"
 preserveAspectRatio="xMidYMid meet">
<metadata>
Created by potrace 1.11, written by Peter Selinger 2001-2013
</metadata>
<g transform="translate(0.000000,230.000000) scale(0.100000,-0.100000)"
fill="#000000" stroke="none">
<path d="M1894 2203 c-207 -325 -527 -667 -884 -944 -165 -128 -471 -326 -610
-394 -55 -27 -56 -28 -159 -207 -56 -99 -100 -182 -98 -185 8 -7 230 130 403
250 207 143 453 341 634 509 80 75 154 146 165 159 11 13 56 62 99 109 156
169 325 389 389 507 42 78 110 244 103 251 -2 2 -21 -23 -42 -55z m-742 -872
c-9 -16 -21 -27 -28 -24 -16 6 -26 -11 -18 -32 6 -14 8 -14 27 2 19 18 20 17
9 -3 -12 -22 -7 -34 12 -34 6 0 5 4 -2 9 -10 6 -10 10 2 20 8 7 12 20 9 29 -5
14 -3 15 7 5 10 -9 11 -15 1 -27 -6 -7 -10 -18 -9 -23 3 -9 -18 -31 -79 -85
-19 -17 -21 -17 -58 17 -22 19 -37 36 -35 38 85 66 128 97 136 97 5 0 15 9 22
20 19 31 23 24 4 -9z m-22 -41 c0 -5 -4 -10 -10 -10 -5 0 -10 5 -10 10 0 6 5
10 10 10 6 0 10 -4 10 -10z"/>
<path d="M1101 1236 c-9 -10 -8 -15 3 -19 11 -4 13 -1 9 10 -5 12 -3 14 7 8 9
-5 11 -4 6 3 -9 15 -11 15 -25 -2z"/>
<path d="M1074 2113 c-42 -76 -92 -166 -111 -201 -18 -35 -45 -82 -60 -105
-32 -51 -82 -137 -265 -457 -77 -135 -145 -251 -151 -258 -19 -24 1 -22 85 8
317 115 708 425 1047 833 26 31 -4 18 -107 -48 -57 -36 -106 -65 -110 -65 -4
0 -59 97 -122 215 -63 118 -118 215 -122 215 -3 0 -41 -62 -84 -137z"/>
<path d="M1934 2003 c-153 -252 -279 -403 -630 -756 -158 -160 -209 -206 -400
-358 -348 -278 -598 -451 -799 -552 -66 -33 -75 -41 -103 -99 -2 -5 87 -8 197
-8 l201 0 148 107 c660 481 1196 1110 1386 1626 27 72 27 84 0 40z"/>
<path d="M1902 1657 c-133 -266 -368 -573 -659 -858 -222 -218 -368 -341 -563
-474 -63 -43 -119 -82 -124 -87 -6 -4 72 -8 171 -8 l182 0 76 61 c179 142 407
385 552 589 124 173 257 414 331 595 50 124 104 285 99 298 -1 5 -31 -47 -65
-116z"/>
<path d="M1867 1315 c-39 -129 -173 -375 -279 -516 -32 -42 -58 -80 -58 -84 0
-4 57 -115 126 -246 l126 -239 234 0 c129 0 234 3 234 7 0 4 -33 68 -74 143
-40 74 -132 243 -204 375 l-130 240 24 180 c13 99 23 184 21 188 -1 5 -10 -17
-20 -48z"/>
</g>
</svg>
